<svg width="180" height="33" viewBox="0 0 180 33" fill="none" xmlns="http://www.w3.org/2000/svg">
<g id="Group 24">
<g id="Group 3">
<mask id="mask0_14843_19683" style="mask-type:luminance" maskUnits="userSpaceOnUse" x="0" y="0" width="29" height="33">
<path id="Clip 2" fill-rule="evenodd" clip-rule="evenodd" d="M0 0H28.2855V32.0831H0V0Z" fill="white"/>
</mask>
<g mask="url(#mask0_14843_19683)">
<path id="Fill 1" fill-rule="evenodd" clip-rule="evenodd" d="M25.5611 22.3586C25.5611 22.5633 25.4247 22.7673 25.2884 22.8346L16.496 27.8673C16.2234 28.0033 15.8826 27.9346 15.7463 27.6633C15.6781 27.5946 15.6781 27.4586 15.6781 27.3906V17.3273C15.6781 17.1233 15.8145 16.9186 15.9508 16.8506L24.7432 11.7506C25.0158 11.6146 25.3566 11.6826 25.4929 11.9546C25.5611 12.0226 25.5611 12.1586 25.5611 12.2273V22.3586ZM12.6085 27.4596C12.6085 27.7996 12.3359 28.0043 12.0633 28.0043C11.9951 28.0043 11.8588 28.0043 11.7906 27.9356L2.99825 22.9043C2.79377 22.8356 2.72561 22.6316 2.72561 22.4283V12.2283C2.72561 11.8883 2.99825 11.6836 3.27088 11.6836C3.33904 11.6836 3.47535 11.6836 3.54351 11.7516L12.3359 16.7843C12.5404 16.8516 12.6085 17.0556 12.6085 17.2596V27.4596ZM5.04441 8.1476L13.8368 3.0476C14.0413 2.97892 14.2458 2.97892 14.3821 3.0476L23.1745 8.1476C23.4471 8.28292 23.5153 8.62292 23.3789 8.89492L23.1745 9.09892L14.3821 14.1989C14.1776 14.2676 13.9731 14.2676 13.8368 14.1989L5.04441 9.09892C4.77178 8.96292 4.70362 8.62292 4.83994 8.35092L5.04441 8.1476ZM28.2856 8.69097C28.2856 8.35097 28.1493 8.01097 27.9448 7.80765H27.8767L27.8085 7.73897L27.7404 7.67097H27.6722L14.7222 0.190967L14.654 0.122967C14.3132 -0.0810334 13.8361 -0.0123534 13.4953 0.190967L0.545265 7.60297H0.477107L0.408949 7.67097L0.340791 7.73897L0.272632 7.80765C0.0681581 8.01097 0 8.28297 0 8.62297V8.69097V23.5836C0 23.991 0.272632 24.399 0.613423 24.6036L13.5635 32.015C13.5635 32.015 13.6316 32.015 13.6316 32.0836H13.6998H13.7679H13.8361H13.9043H13.9724H14.245H14.3132H14.3814H14.4495H14.5177H14.5858C14.5858 32.0836 14.654 32.0836 14.654 32.015L27.604 24.6036C28.013 24.399 28.2175 23.991 28.2175 23.5836L28.2856 8.69097Z" fill="#9FEF00"/>
</g>
</g>
<path id="Fill 4" fill-rule="evenodd" clip-rule="evenodd" d="M48.8023 22.2909V17.5309C48.8023 17.3949 48.6659 17.2589 48.5296 17.2589H44.372C44.2357 17.2589 44.0993 17.3949 44.0993 17.5309V22.2909C44.0993 22.4269 43.963 22.5629 43.8267 22.5629H41.3049C41.1685 22.5629 41.0322 22.4269 41.0322 22.2909V9.98294C41.0322 9.84694 41.1685 9.71094 41.3049 9.71094H43.8267C43.963 9.71094 44.0993 9.84694 44.0993 9.98294V14.2669C44.0993 14.4029 44.2357 14.5389 44.372 14.5389H48.5296C48.6659 14.5389 48.8023 14.4029 48.8023 14.2669V9.98294C48.8023 9.84694 48.9386 9.71094 49.0749 9.71094H51.5967C51.733 9.71094 51.8694 9.84694 51.8694 9.98294V22.2909C51.8694 22.4269 51.733 22.5629 51.5967 22.5629H49.0749C48.9386 22.5629 48.8023 22.4269 48.8023 22.2909Z" fill="white"/>
<path id="Fill 6" fill-rule="evenodd" clip-rule="evenodd" d="M62.5688 16.3756C62.0917 14.8116 61.6146 13.2476 61.2738 11.6836H61.2056C60.7967 13.2476 60.3877 14.8116 59.9106 16.3756L59.7743 16.8516C59.7062 16.9876 59.8425 17.1916 59.9788 17.2596H60.047H62.3643C62.5006 17.2596 62.637 17.1243 62.637 16.9876V16.9196L62.5688 16.3756ZM58.8889 20.0469L58.2073 22.3589C58.1392 22.4949 58.071 22.5636 57.9347 22.5636H55.2765C55.1402 22.5636 55.0039 22.4269 55.0039 22.2909V22.2236L59.2297 9.91494C59.2979 9.77894 59.366 9.71094 59.5023 9.71094H63.1829C63.3192 9.71094 63.4555 9.77894 63.4555 9.91494L67.6813 22.2236C67.7495 22.3589 67.6813 22.5636 67.4768 22.6309H67.4087H64.7505C64.6142 22.6309 64.4779 22.5636 64.4779 22.4269L63.7963 20.1149C63.7281 19.9789 63.66 19.9109 63.5237 19.9109H59.2979C59.0252 19.8436 58.8889 19.9109 58.8889 20.0469Z" fill="white"/>
<path id="Fill 8" fill-rule="evenodd" clip-rule="evenodd" d="M81.0416 14.2667H78.3834C78.2471 14.2667 78.1108 14.1307 78.1108 13.9947C77.9745 12.8387 76.9521 11.9547 75.7934 12.0227C74.0895 12.0227 72.9989 13.5187 72.9989 16.0347C72.9989 18.5507 74.0213 20.0467 75.7253 20.0467C76.9521 20.1147 77.9745 19.2307 78.1108 18.0067C78.1108 17.8707 78.2471 17.7347 78.3834 17.7347H81.1097C81.2461 17.7347 81.3824 17.8707 81.3824 18.0067V18.0747C80.9734 21.0667 78.8605 22.7667 75.6571 22.7667C71.9084 22.7667 69.6592 20.1827 69.6592 16.0347C69.6592 11.8867 71.9766 9.30273 75.7253 9.30273C78.9287 9.30273 81.0416 11.0707 81.3142 13.9267C81.3824 14.1307 81.2461 14.2667 81.0416 14.2667Z" fill="white"/>
<path id="Fill 10" fill-rule="evenodd" clip-rule="evenodd" d="M95.7639 22.5636H92.5605C92.4917 22.5636 92.356 22.4949 92.2872 22.4276L88.4029 16.5789H88.3347V22.2236C88.3347 22.3589 88.1977 22.4949 88.0621 22.4949H85.5402C85.4039 22.4949 85.2676 22.3589 85.2676 22.2236V9.98355C85.2676 9.84755 85.4039 9.71155 85.5402 9.71155H88.0621C88.1977 9.71155 88.3347 9.84755 88.3347 9.98355V15.2196H88.4029L92.0834 9.77955C92.1509 9.71155 92.2197 9.64355 92.356 9.64355H95.3543C95.4913 9.64355 95.6276 9.77955 95.6276 9.91487C95.6276 9.98355 95.6276 10.0516 95.5588 10.1196L91.3336 15.5596C91.2648 15.6949 91.2648 15.8316 91.3336 15.8996L95.8996 22.0189C95.9684 22.1549 95.9684 22.3589 95.8321 22.4276C95.8996 22.5636 95.8321 22.5636 95.7639 22.5636Z" fill="white"/>
<path id="Fill 12" fill-rule="evenodd" clip-rule="evenodd" d="M104.554 11.4109V22.2229C104.554 22.3589 104.417 22.4949 104.282 22.4949H103.19C103.054 22.4949 102.918 22.3589 102.918 22.2229V11.4109C102.918 11.2749 102.781 11.1389 102.645 11.1389H98.829C98.692 11.1389 98.5557 11.0029 98.5557 10.8669V9.98294C98.5557 9.84694 98.692 9.71094 98.829 9.71094H108.779C108.916 9.71094 109.053 9.84694 109.053 9.98294V10.8669C109.053 11.0029 108.916 11.1389 108.779 11.1389H104.963C104.69 11.1389 104.554 11.2749 104.554 11.4109Z" fill="white"/>
<path id="Fill 14" fill-rule="evenodd" clip-rule="evenodd" d="M120.64 22.2909V16.9189C120.64 16.7829 120.504 16.6469 120.367 16.6469H114.369C114.233 16.6469 114.096 16.7829 114.096 16.9189V22.2909C114.096 22.4269 113.96 22.5629 113.824 22.5629H112.733C112.597 22.5629 112.461 22.4269 112.461 22.2909V9.98294C112.461 9.84694 112.597 9.71094 112.733 9.71094H113.824C113.96 9.71094 114.096 9.84694 114.096 9.98294V14.8789C114.096 15.0149 114.233 15.1509 114.369 15.1509H120.367C120.504 15.1509 120.64 15.0149 120.64 14.8789V9.98294C120.64 9.84694 120.776 9.71094 120.912 9.71094H122.003C122.139 9.71094 122.275 9.84694 122.275 9.98294V22.2909C122.275 22.4269 122.139 22.5629 122.003 22.5629H120.912C120.776 22.5629 120.64 22.4269 120.64 22.2909Z" fill="white"/>
<path id="Fill 16" fill-rule="evenodd" clip-rule="evenodd" d="M129.229 11.4109V14.8789C129.229 15.0149 129.365 15.1509 129.501 15.1509H135.158C135.295 15.1509 135.431 15.2869 135.431 15.4229V16.3069C135.431 16.4429 135.295 16.5789 135.158 16.5789H129.501C129.365 16.5789 129.229 16.7149 129.229 16.8509V20.6589C129.229 20.7949 129.365 20.9309 129.501 20.9309H135.772C135.908 20.9309 136.044 21.0669 136.044 21.2029V22.0869C136.044 22.2229 135.908 22.3589 135.772 22.3589H127.865C127.729 22.3589 127.593 22.2229 127.593 22.0869V9.98294C127.593 9.84694 127.729 9.71094 127.865 9.71094H135.635C135.772 9.71094 135.908 9.84694 135.908 9.98294V10.8669C135.908 11.0029 135.772 11.1389 135.635 11.1389H129.569C129.365 11.1389 129.229 11.2749 129.229 11.4109Z" fill="white"/>
<path id="Fill 18" fill-rule="evenodd" clip-rule="evenodd" d="M143.337 19.8437C143.337 19.979 143.473 20.115 143.609 20.115H145.041C146.54 20.115 147.086 19.639 147.086 18.6877C147.086 17.6677 146.472 17.1917 144.972 17.1917H143.609C143.473 17.1917 143.337 17.3277 143.337 17.4637V19.8437ZM143.337 14.6076C143.337 14.7436 143.473 14.8796 143.609 14.8796H144.972C146.404 14.8796 146.949 14.4036 146.949 13.4516C146.949 12.4996 146.335 12.0916 145.041 12.0916H143.609C143.473 12.0916 143.337 12.2276 143.337 12.3636V14.6076ZM145.313 9.64355C148.517 9.64355 150.016 11.0036 150.016 12.9749C150.084 14.3349 149.198 15.6276 147.835 15.9676V16.0349C149.539 16.4436 150.357 17.3949 150.357 19.0276C150.357 21.2036 148.585 22.6316 145.654 22.6316H140.611C140.474 22.6316 140.338 22.4949 140.338 22.3589V9.98355C140.338 9.84755 140.474 9.71155 140.611 9.71155L145.313 9.64355Z" fill="white"/>
<path id="Fill 20" fill-rule="evenodd" clip-rule="evenodd" d="M156.629 16.1038C156.629 18.6198 157.719 20.1158 159.627 20.1158C161.468 20.1158 162.558 18.6198 162.558 16.1038C162.558 13.5878 161.468 12.0918 159.627 12.0918C157.719 12.0918 156.629 13.5878 156.629 16.1038ZM165.898 16.1031C165.898 20.2511 163.512 22.8351 159.626 22.8351C155.742 22.8351 153.356 20.2511 153.356 16.1031C153.356 11.9551 155.742 9.37109 159.626 9.37109C163.512 9.37109 165.898 11.9551 165.898 16.1031Z" fill="white"/>
<path id="Fill 22" fill-rule="evenodd" clip-rule="evenodd" d="M179.12 22.5636H176.121C175.984 22.5636 175.916 22.4949 175.848 22.4276L173.598 18.1436H173.531L171.281 22.4276C171.213 22.4949 171.145 22.5636 171.009 22.5636H168.078C167.942 22.5636 167.805 22.4276 167.805 22.2916C167.805 22.2236 167.805 22.1549 167.874 22.1549L171.486 16.1716C171.553 16.1036 171.553 15.9676 171.486 15.8316L168.078 10.1196C168.01 9.98355 168.01 9.77955 168.214 9.71155C168.282 9.71155 168.282 9.64355 168.351 9.64355H171.281C171.418 9.64355 171.486 9.71155 171.553 9.77955L173.667 13.9276H173.735L175.848 9.77955C175.916 9.71155 175.984 9.64355 176.121 9.64355H178.983C179.12 9.64355 179.256 9.77955 179.256 9.91487C179.256 9.98355 179.256 10.0516 179.188 10.0516L175.78 15.7636C175.712 15.8316 175.712 15.9676 175.78 16.1036L179.46 22.0876C179.529 22.2236 179.529 22.4276 179.392 22.4949C179.188 22.5636 179.12 22.5636 179.12 22.5636Z" fill="white"/>
</g>
</svg>
